<?xml version="1.0" encoding="UTF-8"?>
<svg id="_圖層_1" data-name="圖層 1" xmlns="http://www.w3.org/2000/svg" xmlns:xlink="http://www.w3.org/1999/xlink" viewBox="0 0 1920 825.26">
  <defs>
    <style>
      .cls-1 {
        fill: #0031ff;
      }

      .cls-2 {
        fill: #0067ff;
      }

      .cls-3 {
        fill: #061033;
      }

      .cls-4 {
        fill: url(#_未命名漸層_9);
      }
    </style>
    <linearGradient id="_未命名漸層_9" data-name="未命名漸層 9" x1="1190.94" y1="266.07" x2="706.73" y2="266.07" gradientUnits="userSpaceOnUse">
      <stop offset="0" stop-color="#8edff2"/>
      <stop offset="1" stop-color="#00a0ff"/>
    </linearGradient>
  </defs>
  <g>
    <path class="cls-3" d="M0,753.25H59.23c3.65,17.1,16.4,26.11,36.14,26.11s29.46-7.8,29.46-19.2c0-7.8-4.86-12.9-17.01-15.3l-47.08-9c-34.63-6.6-56.8-23.41-56.8-61.21s35.54-67.82,87.48-67.82,82.92,24.61,86.57,67.82h-58.93c-2.43-12-11.24-21.9-28.85-21.9-14.28,0-26.73,4.5-26.73,16.5,0,7.5,4.25,11.1,13.97,12.9l51.94,9.3c35.84,6.3,54.98,25.21,54.98,59.41,0,44.11-37.66,74.42-90.51,74.42S4.56,797.36,0,753.25Z"/>
    <path class="cls-3" d="M241.48,611.02h110.56c53.46,0,84.74,29.11,84.74,70.52s-33.41,70.82-84.74,70.82h-48.9v68.71h-61.66v-210.05Zm107.52,91.82c16.4,0,26.43-8.1,26.43-21.6,0-12.3-9.11-20.7-26.43-20.7h-45.86v42.31h45.86Z"/>
    <path class="cls-3" d="M489.34,611.02h167.97v51.01h-106.31v27.01h102.06v51.01h-102.06v30.01h108.74v51.01h-170.4v-210.05Z"/>
    <path class="cls-3" d="M712.9,716.04c0-60.31,40.7-109.22,107.83-109.22,61.96,0,98.11,37.81,104.79,84.62h-61.96c-5.47-15.3-16.71-31.81-41.92-31.81-29.16,0-47.08,24.31-47.08,56.41s17.92,56.41,47.08,56.41c25.21,0,36.45-16.5,41.92-31.81h61.96c-6.68,46.81-42.83,84.62-104.79,84.62-67.13,0-107.83-48.91-107.83-109.22Z"/>
    <path class="cls-3" d="M983.24,733.74v-122.73h61.66v122.43c0,24.91,10.94,39.01,34.02,39.01s34.02-14.1,34.02-39.01v-122.43h61.66v122.73c0,56.41-36.14,91.52-95.68,91.52s-95.68-35.11-95.68-91.52Z"/>
    <path class="cls-3" d="M1237.78,611.02h61.66v157.23h99.02v52.81h-160.68v-210.05Z"/>
    <path class="cls-3" d="M1521.79,611.02h69.86l78.36,210.05h-64.09l-11.24-35.41h-75.93l-11.24,35.41h-64.09l78.36-210.05Zm56.8,123.33l-21.87-68.71-21.87,68.71h43.74Z"/>
    <path class="cls-3" d="M1719.53,611.02h115.72c53.46,0,84.74,28.81,84.74,69.92,0,31.21-18.23,54.61-48.6,64.81l37.66,75.32h-70.77l-32.8-69.92h-24.3v69.92h-61.66v-210.05Zm112.69,90.62c16.4,0,26.42-7.8,26.42-21,0-12-9.11-20.1-26.42-20.1h-51.03v41.11h51.03Z"/>
  </g>
  <g>
    <polygon class="cls-4" points="1190.94 459.97 803.15 459.97 706.73 72.17 1094.53 72.17 1190.94 459.97"/>
    <polygon class="cls-2" points="996.52 459.97 803.69 459.97 755.74 267.14 948.58 267.14 996.52 459.97"/>
    <polygon class="cls-1" points="1240.76 242.01 998.74 242.01 938.57 0 1180.59 0 1240.76 242.01"/>
  </g>
</svg>